<?xml version="1.0" standalone="no"?>
<!DOCTYPE svg PUBLIC "-//W3C//DTD SVG 20010904//EN"
 "http://www.w3.org/TR/2001/REC-SVG-20010904/DTD/svg10.dtd">
<svg version="1.0" xmlns="http://www.w3.org/2000/svg"
 width="1080.000000pt" height="240.000000pt" viewBox="0 0 1080.000000 240.000000"
 preserveAspectRatio="xMidYMid meet">

<g transform="translate(0.000000,240.000000) scale(0.100000,-0.100000)"
fill="#000000" stroke="none">
<path d="M450 2040 l0 -360 121 0 c93 0 120 -3 116 -12 -69 -156 -91 -261 -83
-388 8 -115 28 -187 83 -300 39 -80 61 -109 137 -186 77 -76 106 -98 186 -137
131 -65 200 -81 340 -81 140 0 209 16 340 81 80 39 109 61 186 137 76 77 98
106 137 186 55 113 75 185 83 300 8 127 -14 232 -83 388 -4 9 72 12 363 11
343 0 365 -1 314 -15 -194 -51 -291 -166 -441 -525 -142 -342 -242 -487 -405
-592 -265 -171 -723 -171 -988 0 -163 105 -263 250 -405 592 -142 337 -233
455 -397 511 l-54 19 0 -835 0 -834 5400 0 5400 0 0 840 0 840 -225 0 -225 0
0 360 0 360 -770 0 c-705 0 -770 -1 -770 -16 0 -9 -16 -39 -35 -65 -19 -27
-35 -54 -35 -60 0 -5 -4 -7 -10 -4 -5 3 -10 0 -10 -8 0 -7 -11 -24 -25 -37
-14 -13 -25 -30 -25 -37 0 -9 -5 -11 -12 -7 -10 6 -10 4 -1 -7 7 -7 13 -18 13
-24 0 -5 -5 -3 -10 5 -8 12 -10 9 -10 -12 0 -16 -4 -28 -8 -28 -5 0 -15 -11
-22 -25 -7 -13 -17 -22 -22 -19 -4 3 -8 -6 -8 -20 0 -18 -6 -25 -22 -28 -19
-2 -23 -9 -23 -36 0 -22 -5 -34 -18 -38 -9 -3 -15 -9 -12 -14 3 -5 -4 -14 -15
-20 -13 -7 -19 -18 -16 -26 3 -8 -1 -14 -9 -14 -8 0 -15 -5 -15 -11 0 -5 -4
-8 -9 -4 -5 3 -12 1 -16 -5 -4 -6 -10 -8 -14 -6 -9 6 -37 -11 -30 -19 8 -8
155 -35 190 -35 17 0 32 6 35 15 4 8 10 12 15 9 5 -3 9 2 9 10 0 9 3 16 8 16
4 0 13 14 20 30 8 17 18 28 23 24 5 -3 12 9 16 26 4 25 10 31 24 27 11 -3 17
-1 13 4 -3 5 1 9 8 9 10 0 9 3 -1 9 -12 8 -12 12 -2 25 7 8 18 14 24 13 6 -1
13 8 15 21 2 12 -2 22 -9 22 -9 0 -8 4 1 15 10 13 9 15 -11 15 -21 1 -22 2 -6
11 9 5 17 15 17 21 0 6 9 19 21 29 11 10 18 22 15 27 -5 9 15 22 34 22 5 0 7
-13 5 -30 -2 -16 0 -30 5 -30 16 0 11 -40 -5 -46 -22 -9 -18 -24 5 -24 13 0
20 7 20 20 0 11 5 20 10 20 6 0 10 7 10 15 0 8 5 15 10 15 6 0 10 10 10 23 0
18 2 19 10 7 8 -12 10 -11 10 8 0 12 5 22 10 22 6 0 10 8 10 18 0 14 2 15 10
2 8 -12 10 -10 10 9 0 33 22 13 38 -36 22 -63 34 -83 52 -83 25 0 90 -29 90
-40 0 -18 -25 -65 -42 -78 -36 -27 -50 -45 -39 -52 6 -3 -9 -16 -34 -29 -43
-22 -50 -30 -46 -60 2 -7 -2 -10 -8 -7 -5 3 -16 -1 -25 -9 -9 -9 -36 -23 -61
-31 -25 -9 -45 -20 -45 -25 0 -5 -6 -9 -13 -9 -7 0 -22 -6 -32 -14 -17 -12
-14 -15 36 -34 l54 -21 -350 3 c-192 2 -369 7 -392 11 -24 4 -43 3 -43 -1 0
-5 -62 -10 -137 -12 l-137 -3 24 19 c38 31 16 37 -27 8 -33 -23 -48 -26 -118
-26 l-80 1 30 22 c94 69 134 125 108 151 -8 8 -12 46 -4 46 3 0 6 19 6 43 0
23 4 135 9 250 7 187 7 207 -8 207 -12 0 -16 -10 -17 -37 -3 -56 -8 -132 -13
-183 -2 -25 -4 -53 -5 -63 -2 -38 -19 -5 -26 50 -6 51 -20 92 -68 206 -10 22
-18 27 -45 27 -18 0 -31 -4 -28 -8 10 -17 23 -122 15 -122 -5 0 -4 -11 1 -25
5 -14 7 -25 4 -25 -2 0 0 -9 6 -20 8 -16 6 -21 -12 -31 -21 -11 -22 -11 -9 4
8 11 9 17 2 17 -11 0 -47 59 -43 72 1 4 -7 10 -18 13 -11 4 -18 10 -15 15 3 4
-1 10 -9 13 -15 6 21 -86 49 -127 11 -14 12 -23 3 -33 -9 -11 -7 -12 7 -7 12
5 16 4 12 -3 -5 -7 0 -9 13 -6 11 3 23 10 26 15 4 6 -2 7 -17 3 -27 -8 -24 -3
8 14 22 11 26 0 10 -26 -5 -8 -3 -13 4 -13 7 0 4 -7 -7 -15 -15 -11 -16 -15
-4 -15 9 0 6 -6 -9 -14 -18 -10 -20 -15 -10 -19 9 -3 10 -6 2 -6 -7 -1 -17 8
-23 19 -9 16 -6 22 17 35 16 9 19 13 8 10 -35 -12 -48 -10 -50 8 -2 9 -19 39
-37 65 -29 39 -40 47 -71 50 -46 4 -49 -14 -13 -79 27 -50 29 -106 6 -199 -16
-64 -30 -83 -53 -74 -15 5 -19 17 -16 40 0 4 -4 10 -11 14 -6 4 -12 16 -13 28
0 11 -4 19 -8 17 -3 -3 -15 6 -26 18 -31 34 -84 77 -95 77 -6 0 -7 -8 -3 -17
4 -10 11 -30 15 -44 4 -14 15 -40 24 -57 16 -30 15 -32 -1 -33 -16 0 -15 -2 2
-9 l20 -9 -20 -1 c-17 -2 -17 -3 5 -11 20 -7 17 -8 -15 -4 -22 3 -48 5 -57 5
-9 0 -29 11 -43 25 -14 14 -25 21 -25 15 0 -5 -5 -9 -11 -8 -6 2 -14 -3 -17
-11 -3 -9 0 -11 8 -6 8 5 11 4 7 -3 -9 -14 3 -43 14 -36 5 3 6 -2 3 -10 -4
-10 -18 -13 -52 -11 -99 6 -136 25 -209 105 -35 37 -84 82 -110 100 -42 28
-54 31 -101 27 -60 -4 -64 6 -14 38 115 73 152 98 152 104 0 4 13 21 29 39 21
22 39 32 60 32 16 0 33 5 36 10 8 13 -11 12 -118 -4 -48 -7 -93 -18 -98 -23
-7 -7 -22 -8 -46 -1 -44 12 -90 2 -103 -23 -14 -25 -36 -24 -57 1 -22 26 -47
25 -82 -1 -32 -23 -85 -20 -95 7 -7 19 -36 18 -50 -2 -16 -21 -76 -22 -91 -1
-13 18 -55 23 -55 7 0 -5 -8 -10 -17 -10 -10 -1 4 -9 30 -20 51 -20 77 -37 77
-51 0 -5 -18 -18 -39 -29 -113 -57 -153 -98 -203 -202 -15 -32 -46 -90 -69
-129 -23 -38 -39 -72 -36 -75 3 -3 17 15 32 40 27 46 40 60 29 31 -4 -8 -1
-15 4 -15 6 0 14 9 17 21 6 19 52 45 62 35 12 -12 -17 -96 -48 -138 -31 -43
-38 -47 -77 -47 -40 -1 -43 1 -37 22 l7 22 -17 -22 c-15 -21 -24 -23 -121 -23
-83 0 -104 3 -104 14 0 8 6 17 13 19 20 9 -14 27 -50 27 -38 0 -41 -12 -13
-40 l20 -20 -50 0 c-42 0 -50 3 -50 19 0 38 -24 43 -66 11 l-39 -29 -204 -1
c-191 0 -265 8 -297 32 -8 5 -13 1 -17 -12 -5 -20 -12 -20 -566 -20 l-562 0
-8 22 -8 23 -7 -23 -7 -22 -260 0 -259 0 -10 26 c-6 14 -10 39 -10 55 0 17 -4
28 -9 25 -5 -3 -11 8 -13 24 -3 17 -1 30 4 30 5 0 2 12 -5 28 -21 40 -28 80
-17 87 6 4 8 11 4 16 -3 6 -3 27 1 47 6 34 8 35 21 18 7 -11 24 -20 38 -22 23
-2 44 -12 112 -53 18 -11 63 -50 100 -86 81 -79 132 -120 140 -112 11 11 -34
63 -146 170 -85 82 -123 111 -161 124 -43 16 -47 19 -27 25 23 6 23 6 -2 7
-35 1 -109 -35 -117 -56 -4 -10 -10 -20 -14 -23 -4 -3 -10 -18 -13 -34 -3 -15
-10 -33 -15 -40 -6 -7 -8 -21 -5 -33 3 -11 1 -24 -5 -27 -6 -4 -11 1 -12 11 0
16 -1 16 -9 -2 -5 -11 -9 -31 -9 -45 -1 -20 1 -22 10 -10 8 11 9 6 4 -20 -4
-19 -8 -44 -9 -54 -2 -11 -8 -22 -14 -24 -7 -2 -12 -10 -12 -18 0 -21 -16 -17
-41 9 -32 33 -38 58 -32 127 5 46 3 61 -5 56 -15 -9 -15 -4 -1 31 6 15 17 53
25 83 26 111 98 276 151 348 l24 32 -1320 0 -1321 0 0 -360z m6000 170 c0 -5
-5 -10 -11 -10 -5 0 -7 5 -4 10 3 6 8 10 11 10 2 0 4 -4 4 -10z m1310 -124 c0
-2 -7 -7 -16 -10 -8 -3 -12 -2 -9 4 6 10 25 14 25 6z m-1120 -31 c8 -10 30
-15 65 -15 56 0 80 -15 69 -43 -4 -12 4 -21 30 -34 20 -9 36 -20 36 -25 0 -15
-45 -8 -98 17 -65 30 -120 32 -170 6 -44 -23 -87 -67 -97 -98 -3 -13 -11 -23
-16 -23 -15 0 18 69 67 143 59 86 87 104 114 72z m2738 -8 c6 -5 12 -22 12
-39 0 -16 7 -61 17 -99 14 -59 14 -77 4 -126 -7 -32 -15 -68 -17 -81 -4 -22
-8 -23 -94 -21 -69 1 -90 5 -90 15 0 8 5 14 10 14 6 0 10 5 10 11 0 5 -4 7
-10 4 -15 -9 -12 2 6 30 14 21 14 28 3 42 -10 11 -10 14 -1 9 8 -5 12 1 12 18
0 14 5 26 10 26 6 0 10 5 10 11 0 5 -4 7 -10 4 -5 -3 -10 -1 -10 5 0 6 7 13
15 16 10 4 15 20 15 46 0 23 4 37 10 33 6 -4 10 7 10 24 0 17 4 31 9 31 5 0
11 8 13 18 5 19 42 24 66 9z m-2673 -117 c32 -12 24 -30 -13 -30 -15 0 -33 -4
-41 -9 -9 -6 34 -7 107 -4 109 5 122 4 122 -11 0 -9 6 -16 14 -16 7 0 19 -7
26 -15 7 -8 25 -15 41 -15 15 0 31 -4 34 -10 3 -5 19 -10 35 -10 39 0 156 -43
171 -63 3 -4 28 -10 56 -14 62 -7 76 -14 67 -36 -5 -14 -21 -17 -91 -17 -64 0
-83 3 -77 13 6 10 4 10 -7 0 -10 -10 -80 -13 -278 -13 -287 1 -273 -2 -207 46
11 7 17 16 14 20 -4 3 -30 -10 -60 -30 -49 -34 -58 -36 -130 -36 -44 0 -78 4
-78 10 0 24 50 120 81 155 33 37 137 95 171 95 9 0 29 -4 43 -10z m498 -47
c-7 -2 -19 -2 -25 0 -7 3 -2 5 12 5 14 0 19 -2 13 -5z m60 -10 c-7 -2 -21 -2
-30 0 -10 3 -4 5 12 5 17 0 24 -2 18 -5z m42 -13 c-2 -4 7 -12 20 -18 14 -7
25 -16 25 -22 0 -6 6 -8 13 -4 9 6 9 5 0 -8 -7 -8 -10 -17 -7 -20 3 -3 0 -9
-7 -14 -8 -5 -10 -3 -4 6 6 10 4 12 -10 6 -15 -5 -16 -4 -6 8 9 11 8 14 -5 12
-9 0 -19 5 -21 12 -3 6 0 12 7 12 6 0 8 -4 5 -10 -4 -6 1 -7 11 -3 14 5 13 8
-9 19 -27 15 -46 47 -22 37 8 -3 13 -8 10 -13z m-42 -7 c-7 -2 -21 -2 -30 0
-10 3 -4 5 12 5 17 0 24 -2 18 -5z m7 -33 c0 -11 -5 -20 -11 -20 -6 0 -9 6 -6
14 3 8 1 17 -6 20 -7 2 -4 5 6 5 11 1 17 -6 17 -19z m-1221 -67 c19 -68 17
-73 -39 -73 l-50 0 17 43 c16 39 38 66 55 67 4 0 12 -17 17 -37z m-4636 -19
c67 -35 281 -190 313 -228 18 -21 36 -53 39 -70 4 -17 5 -117 3 -223 l-3 -191
-31 -39 c-62 -77 -67 -78 -361 -81 -167 -2 -276 1 -302 8 -51 13 -96 51 -124
104 -20 38 -22 54 -22 226 0 244 1 247 175 383 69 55 139 105 155 113 41 18
119 17 158 -2z m8127 -46 c0 -4 -9 -8 -20 -8 -21 0 -24 8 -13 36 6 16 7 16 20
-2 7 -10 13 -21 13 -26z m-5382 -228 c67 -16 128 -48 183 -98 109 -98 154
-203 147 -347 -5 -113 -35 -192 -67 -176 -11 6 -40 11 -66 11 l-45 0 25 49
c74 147 15 332 -130 406 -52 26 -69 30 -144 30 -69 0 -95 -4 -132 -23 -230
-113 -232 -440 -3 -552 69 -34 198 -35 263 -2 25 12 48 22 53 22 4 0 8 -21 8
-46 0 -25 4 -54 10 -64 9 -16 3 -21 -47 -40 -213 -80 -448 18 -546 229 -40 85
-50 218 -22 302 73 219 296 349 513 299z m5357 -1 c25 -7 56 -27 82 -54 125
-130 32 -344 -150 -345 -120 0 -207 85 -207 205 0 145 127 234 275 194z
m-2592 -46 c124 -59 216 -178 238 -311 11 -70 11 -291 0 -350 -9 -47 -46 -93
-96 -120 -25 -14 -61 -17 -215 -16 -167 0 -191 2 -241 22 -86 34 -147 80 -195
145 -147 199 -94 472 117 607 70 46 129 60 234 57 77 -2 100 -7 158 -34z
m-2746 -135 c60 -28 120 -100 139 -166 21 -70 14 -134 -21 -203 l-27 -52 -44
45 c-41 40 -44 47 -34 72 15 41 12 104 -7 138 -21 35 -80 68 -123 68 -89 0
-159 -94 -136 -184 19 -74 99 -116 179 -92 l45 14 41 -42 c41 -42 41 -43 22
-60 -48 -43 -168 -59 -244 -32 -128 46 -204 199 -162 328 53 162 222 238 372
166z m-40 -173 c16 -18 23 -39 23 -70 0 -24 -4 -46 -8 -49 -5 -3 -24 10 -42
29 -60 62 -91 38 -33 -25 30 -34 34 -43 22 -51 -18 -11 -42 -11 -72 0 -73 28
-92 118 -37 173 28 28 36 30 78 25 34 -4 53 -12 69 -32z m5478 -139 c71 -32
103 -59 121 -103 30 -70 3 -152 -64 -198 -154 -106 -418 -75 -507 59 -53 81
-16 180 86 231 71 36 113 44 214 42 74 -2 101 -8 150 -31z m-5170 -203 c53
-55 54 -76 5 -83 -30 -4 -35 -9 -38 -35 -6 -52 -19 -52 -72 0 -47 46 -50 52
-50 100 0 29 3 55 7 58 3 4 28 7 55 7 45 0 52 -4 93 -47z m-935 -251 c0 -37 1
-38 34 -34 48 6 66 -23 66 -110 0 -66 -1 -68 -25 -68 -23 0 -24 3 -27 68 -3
59 -5 67 -23 67 -18 0 -20 -8 -23 -67 -3 -68 -3 -68 -32 -68 l-30 0 0 125 0
125 30 0 c28 0 30 -2 30 -38z m360 -87 l0 -125 -25 0 -25 0 0 125 0 125 25 0
25 0 0 -125z m90 0 l0 -125 -25 0 -25 0 0 125 0 125 25 0 25 0 0 -125z m2730
87 c0 -37 1 -38 33 -34 53 6 67 -16 67 -104 0 -72 -1 -74 -25 -74 -23 0 -24 3
-27 68 -3 59 -5 67 -23 67 -18 0 -20 -8 -23 -67 -3 -65 -4 -68 -27 -68 l-25 0
0 125 0 125 25 0 c22 0 25 -4 25 -38z m2940 12 c0 -21 -4 -24 -20 -19 -23 7
-60 -2 -60 -16 0 -5 9 -9 20 -9 12 0 20 -7 20 -16 0 -9 -9 -18 -20 -21 -18 -5
-20 -14 -20 -74 0 -67 -1 -69 -25 -69 -24 0 -25 2 -25 69 0 52 -4 70 -15 75
-8 3 -15 12 -15 21 0 8 7 15 15 15 8 0 15 8 15 17 0 33 31 53 82 53 45 0 48
-2 48 -26z m110 -99 l0 -125 -25 0 -25 0 0 125 0 125 25 0 25 0 0 -125z
m-6335 90 c31 -30 33 -65 5 -65 -10 0 -24 9 -30 19 -15 29 -48 36 -71 15 -14
-12 -19 -30 -19 -65 0 -72 38 -101 80 -59 24 24 60 27 60 5 0 -9 -11 -27 -25
-40 -36 -37 -97 -35 -136 4 -26 26 -29 36 -29 91 0 55 3 65 29 91 39 39 100
41 136 4z m3180 0 c31 -30 33 -65 5 -65 -10 0 -24 9 -30 19 -15 29 -48 36 -71
15 -14 -12 -19 -30 -19 -65 0 -72 38 -101 80 -59 24 24 60 27 60 5 0 -9 -11
-27 -25 -40 -36 -37 -97 -35 -136 4 -26 26 -29 36 -29 91 0 55 3 65 29 91 39
39 100 41 136 4z m2549 4 c20 -16 26 -29 26 -59 0 -49 -35 -80 -91 -80 -39 0
-39 0 -39 -40 0 -36 -2 -40 -25 -40 l-25 0 0 120 0 120 64 0 c49 0 69 -5 90
-21z m-2074 -14 c0 -16 6 -25 15 -25 8 0 15 -9 15 -20 0 -11 -7 -20 -15 -20
-11 0 -15 -12 -15 -50 0 -38 4 -50 15 -50 8 0 15 -9 15 -20 0 -15 -7 -20 -28
-20 -41 0 -52 17 -52 82 0 45 -3 58 -15 58 -8 0 -15 9 -15 20 0 11 7 20 15 20
9 0 15 9 15 25 0 20 5 25 25 25 20 0 25 -5 25 -25z m-3295 -39 c16 -11 20 -29
23 -89 l4 -75 -66 -1 c-56 0 -68 3 -81 22 -8 12 -15 27 -15 34 0 23 39 53 70
53 20 0 30 5 30 15 0 8 -9 15 -20 15 -11 0 -20 -4 -20 -10 0 -5 -11 -10 -25
-10 -31 0 -33 23 -3 44 28 20 78 21 103 2z m364 -12 c12 -15 21 -37 21 -50 0
-22 -4 -24 -56 -24 -57 0 -67 -11 -31 -34 12 -8 23 -7 37 2 23 14 40 8 40 -13
0 -19 -32 -35 -70 -35 -70 0 -106 94 -59 154 16 20 29 26 59 26 30 0 43 -6 59
-26z m179 14 c8 -7 12 -38 12 -89 0 -77 -1 -79 -25 -79 -23 0 -24 3 -27 68 -3
59 -5 67 -23 67 -18 0 -20 -8 -23 -67 -3 -65 -4 -68 -27 -68 -25 0 -25 1 -25
89 l0 89 63 0 c34 0 68 -5 75 -10z m202 -91 c0 -90 -2 -103 -22 -124 -25 -27
-83 -31 -113 -9 -16 12 -17 16 -6 30 10 12 17 13 27 5 18 -15 58 -7 62 12 2
12 -5 14 -31 11 -28 -3 -38 1 -56 23 -27 36 -28 94 -1 128 18 23 27 26 80 25
l60 -1 0 -100z m169 77 c12 -15 21 -37 21 -50 0 -22 -4 -24 -56 -24 -57 0 -67
-11 -31 -34 12 -8 23 -7 37 2 23 14 40 8 40 -13 0 -19 -32 -35 -70 -35 -46 0
-80 38 -80 90 0 81 92 123 139 64z m171 6 c27 -27 25 -40 -4 -40 -14 0 -28 5
-31 10 -9 14 -47 12 -43 -2 3 -7 17 -15 32 -19 33 -9 66 -37 66 -56 0 -7 -9
-22 -20 -33 -37 -37 -130 -18 -130 27 0 15 36 18 45 3 8 -13 55 -13 55 0 0 6
-8 13 -17 16 -58 19 -74 29 -79 51 -14 56 81 88 126 43z m2095 6 c16 -11 20
-29 23 -89 l4 -75 -66 -1 c-56 0 -68 3 -81 22 -8 12 -15 27 -15 34 0 23 39 53
70 53 20 0 30 5 30 15 0 8 -9 15 -20 15 -11 0 -20 -4 -20 -10 0 -5 -11 -10
-25 -10 -31 0 -33 23 -3 44 28 20 78 21 103 2z m2345 -11 c0 -17 -7 -25 -22
-27 -21 -3 -23 -9 -26 -65 -3 -59 -4 -63 -27 -63 -25 0 -25 1 -25 89 l0 90 50
-1 c46 0 50 -2 50 -23z m150 0 c53 -56 15 -155 -59 -155 -52 0 -81 32 -81 89
0 59 28 91 80 91 26 0 43 -7 60 -25z m220 -65 l0 -90 -30 0 -30 0 0 90 0 90
30 0 30 0 0 -90z m250 70 c11 -11 20 -33 20 -50 0 -29 -1 -30 -51 -30 -43 0
-50 -3 -47 -17 4 -21 43 -29 62 -14 10 8 17 7 26 -4 18 -22 -13 -44 -61 -45
-81 0 -118 101 -59 160 27 27 84 26 110 0z"/>
<path d="M6557 1789 c-22 -11 -37 -23 -34 -26 6 -5 97 33 97 41 0 11 -25 5
-63 -15z"/>
<path d="M1333 1223 c-20 -7 -18 -157 2 -173 12 -10 18 -10 30 0 22 18 21 165
-1 174 -9 3 -16 6 -17 5 -1 0 -8 -3 -14 -6z"/>
<path d="M6592 1201 c-8 -4 -12 -19 -10 -32 3 -23 5 -24 98 -24 83 0 95 2 98
18 7 36 -16 47 -97 47 -42 0 -82 -4 -89 -9z"/>
<path d="M6592 1061 c-8 -4 -12 -19 -10 -32 l3 -24 159 0 c142 0 160 2 170 18
9 15 7 21 -8 33 -15 11 -53 14 -160 14 -78 0 -147 -4 -154 -9z"/>
<path d="M6584 916 c-3 -8 -4 -23 -2 -33 3 -16 17 -18 162 -18 137 0 160 2
169 17 8 12 7 21 -2 32 -19 23 -319 24 -327 2z"/>
<path d="M9030 460 c0 -40 1 -41 31 -38 39 4 59 30 43 56 -6 9 -25 18 -43 20
-30 3 -31 2 -31 -38z"/>
<path d="M3697 373 c-14 -13 -6 -33 13 -33 13 0 20 7 20 20 0 19 -20 27 -33
13z"/>
<path d="M4047 434 c-15 -15 -6 -24 24 -24 20 0 29 4 27 13 -5 14 -40 21 -51
11z"/>
<path d="M4412 428 c-30 -30 -3 -98 33 -84 12 4 15 17 13 48 -3 45 -22 60 -46
36z"/>
<path d="M4597 434 c-15 -15 -6 -24 24 -24 20 0 29 4 27 13 -5 14 -40 21 -51
11z"/>
<path d="M6877 373 c-14 -13 -6 -33 13 -33 13 0 20 7 20 20 0 19 -20 27 -33
13z"/>
<path d="M9354 427 c-3 -8 -4 -30 -2 -49 2 -28 7 -33 28 -33 23 0 25 4 25 45
0 39 -3 45 -23 48 -13 2 -24 -3 -28 -11z"/>
<path d="M9837 434 c-14 -14 -6 -24 19 -24 16 0 24 5 22 13 -5 14 -31 21 -41
11z"/>
<path d="M4070 2388 c0 -18 59 -197 76 -230 8 -15 14 -36 14 -46 0 -24 27 -48
69 -63 38 -14 47 -7 66 47 8 24 24 45 41 55 16 8 31 26 35 40 6 22 7 22 8 -7
1 -19 -7 -38 -18 -48 -15 -14 -18 -26 -14 -54 7 -45 11 -51 23 -32 16 26 22 2
10 -35 -11 -33 -8 -56 6 -43 6 6 25 69 53 178 11 42 22 65 32 65 8 0 20 8 27
18 7 9 22 17 33 17 11 0 27 7 36 15 8 8 19 12 25 9 21 -13 -3 -67 -58 -128
-61 -68 -112 -142 -81 -117 10 8 20 11 24 7 3 -3 15 1 25 11 17 15 19 15 31
-1 13 -18 47 -13 47 7 0 6 6 4 13 -5 6 -8 27 -20 45 -27 27 -8 37 -8 49 4 8 8
19 15 24 15 5 0 15 11 21 25 6 14 18 25 25 25 8 0 11 5 7 12 -4 6 -3 8 4 4 6
-3 16 -23 23 -44 15 -49 29 -64 50 -59 12 3 19 -3 23 -19 4 -13 10 -24 15 -24
5 0 36 25 70 55 34 30 67 55 72 55 6 0 23 -6 37 -14 55 -30 85 -33 152 -19 36
8 86 12 111 10 37 -3 49 0 58 14 10 17 8 18 -18 13 -24 -5 -32 -1 -51 26 -18
25 -21 41 -17 76 4 41 2 46 -20 55 -14 5 -29 7 -34 3 -5 -3 -9 2 -9 10 0 20
-28 35 -52 28 -13 -3 -28 6 -47 27 -22 25 -34 31 -52 26 -19 -5 -35 3 -69 32
l-44 38 -448 3 c-365 3 -448 1 -448 -10z"/>
<path d="M5200 2380 c39 -31 43 -35 74 -70 16 -18 39 -60 52 -92 13 -33 29
-67 35 -74 11 -13 23 -11 25 4 4 52 20 93 47 122 l32 34 5 -24 c3 -14 13 -41
22 -60 9 -19 13 -37 9 -40 -29 -19 -16 -142 16 -163 7 -4 13 -15 13 -22 0 -8
5 -15 10 -15 13 0 13 11 -5 105 -9 44 -15 94 -14 110 0 17 1 69 0 117 l-1 88
-50 -1 c-27 -1 -50 -6 -50 -12 0 -6 -5 -5 -13 1 -14 12 -35 11 -54 -1 -8 -5
-13 -4 -13 2 0 7 -31 11 -82 11 l-83 -1 25 -19z m168 -15 c-3 -30 -2 -29 -19
-8 -10 11 -10 14 -1 9 7 -4 12 -1 12 8 0 9 2 16 5 16 3 0 4 -11 3 -25z m62 10
c6 3 10 1 10 -6 0 -6 7 -17 16 -24 16 -11 16 -12 0 -18 -10 -4 -14 -3 -11 3 6
9 -29 33 -37 25 -2 -2 -9 5 -16 16 -12 19 -11 19 8 9 11 -6 25 -8 30 -5z"/>
<path d="M7854 2340 c2 -36 7 -99 10 -140 4 -41 8 -102 10 -135 2 -33 7 -72
11 -87 4 -15 2 -42 -4 -59 -14 -40 -3 -59 27 -48 26 10 26 13 7 104 -15 72
-19 123 -9 112 8 -7 46 -145 48 -172 1 -25 49 -47 82 -39 13 3 24 7 24 9 0 1
-13 31 -29 66 -28 65 -71 213 -71 249 0 11 6 20 14 20 7 0 20 10 29 23 15 22
15 22 30 2 14 -18 16 -18 22 -3 4 9 4 22 0 28 -3 5 -2 10 2 10 25 0 47 -37 93
-155 87 -222 90 -210 10 30 -48 142 -70 234 -51 205 9 -12 11 -12 11 -1 0 8
14 -5 30 -27 26 -37 42 -48 53 -39 2 1 11 -5 20 -14 9 -9 38 -20 64 -24 26 -5
55 -10 63 -11 8 -2 28 2 44 8 22 9 31 9 33 1 3 -7 17 0 34 16 27 26 40 49 20
37 -5 -3 -11 17 -15 44 l-7 50 -275 0 c-271 0 -275 0 -269 -20 3 -11 2 -20 -4
-20 -5 0 -12 8 -14 18 -2 9 -2 -1 1 -23 2 -22 15 -85 28 -139 13 -55 21 -102
19 -105 -9 -8 -44 -8 -39 0 2 4 0 9 -5 11 -5 1 -15 56 -21 122 -13 134 -31
200 -26 96z m599 30 c3 -11 1 -18 -4 -14 -5 3 -9 12 -9 20 0 20 7 17 13 -6z
m-518 -41 c4 -12 3 -25 -3 -31 -6 -6 -11 1 -14 21 -5 35 7 42 17 10z"/>
<path d="M8650 2383 c0 -15 2 -16 10 -3 9 13 10 13 10 0 0 -12 2 -13 9 -1 5 7
14 10 20 7 6 -4 11 -2 11 3 0 6 -13 11 -30 11 -22 0 -30 -5 -30 -17z"/>
<path d="M7284 2310 c15 -25 43 -77 61 -115 39 -81 72 -128 86 -119 6 4 6 11
-1 19 -7 8 -9 19 -5 25 3 5 2 10 -2 10 -5 0 -32 39 -60 88 -28 48 -63 98 -79
112 l-27 25 27 -45z"/>
<path d="M7285 2109 c4 -5 10 -7 15 -4 4 3 11 -2 14 -11 3 -8 11 -12 17 -9 6
5 7 11 2 16 -13 13 -55 20 -48 8z"/>
<path d="M7115 2075 c-26 -25 -33 -77 -15 -105 8 -12 10 -11 10 8 0 13 7 37
16 53 16 33 26 69 18 69 -3 0 -16 -11 -29 -25z"/>
<path d="M5861 2065 c1 -11 4 -31 9 -45 6 -21 8 -22 14 -8 4 9 1 29 -8 45 -12
22 -15 24 -15 8z"/>
<path d="M4243 2006 c-46 -11 -47 -12 -34 -68 6 -24 5 -40 -2 -47 -8 -8 -6
-11 6 -11 25 0 50 34 64 87 7 26 11 48 10 48 -1 0 -21 -4 -44 -9z"/>
<path d="M2981 1923 c-6 -21 -11 -47 -11 -58 0 -11 -6 -29 -14 -40 -8 -13 -10
-27 -5 -40 6 -17 8 -17 8 -2 1 9 5 25 10 35 14 25 35 131 28 138 -3 3 -10 -11
-16 -33z"/>
<path d="M3987 1913 c-4 -33 -2 -51 7 -58 7 -5 18 -23 24 -40 10 -29 10 -29
11 -5 1 27 -23 138 -31 146 -3 2 -8 -17 -11 -43z m10 -45 c-3 -8 -6 -5 -6 6
-1 11 2 17 5 13 3 -3 4 -12 1 -19z"/>
<path d="M3910 1935 c-7 -8 -21 -15 -31 -15 -22 0 -22 1 -8 -56 11 -42 49 -84
77 -84 6 0 12 25 14 55 1 30 -1 55 -5 55 -5 0 -6 3 -4 8 7 10 -11 52 -21 52
-5 0 -15 -7 -22 -15z"/>
<path d="M7829 1929 c-1 -8 -3 -35 -4 -61 -1 -41 1 -46 16 -37 24 12 32 26 19
34 -6 4 -8 11 -5 16 4 5 -2 9 -12 10 -16 0 -16 1 -1 7 15 6 15 9 2 26 -10 15
-14 16 -15 5z"/>
<path d="M4856 1889 c-3 -17 -6 -49 -6 -71 l0 -39 29 16 c55 28 88 90 49 90
-8 0 -23 8 -32 18 -25 24 -33 21 -40 -14z"/>
<path d="M4091 1724 c0 -11 3 -14 6 -6 3 7 2 16 -1 19 -3 4 -6 -2 -5 -13z"/>
</g>
</svg>
